<svg width="512" height="512" viewBox="0 0 512 512" fill="none" xmlns="http://www.w3.org/2000/svg">
<rect width="378.821" height="378.821" fill="#FF6F91"/>
<rect x="133.179" y="133.179" width="378.821" height="378.821" fill="#3EFFDF"/>
<path fill-rule="evenodd" clip-rule="evenodd" d="M362.662 196.784C358.971 181.088 338.162 177.811 329.789 191.449L329.594 191.774L302.749 237.437C295.689 249.445 304.339 264.596 318.279 264.596H355.861C367.302 264.596 375.79 254.09 373.516 242.976L373.4 242.446L362.662 196.784Z" fill="white"/>
<path fill-rule="evenodd" clip-rule="evenodd" d="M445.821 445.821H67V67H445.821V445.821ZM172.104 106C146.04 106 123.494 124.075 117.769 149.453L117.636 150.055L77.2578 338.593C69.8289 373.281 96.257 406 131.725 406H139.493C165.723 406 188.396 387.692 193.938 362.047L201.04 329.188L228.186 377.555L228.655 378.374C238.627 395.46 256.931 406 276.757 406H390.708C418.925 406 440.513 380.978 436.524 353.144L436.425 352.485L435.731 348.086C432.995 330.72 419.632 317.33 402.902 314.127C413.076 309.865 421.396 302.094 426.335 292.211C431.102 282.671 432.412 271.784 430.063 261.402L429.825 260.398L401.794 148.215C395.595 123.408 373.317 106 347.754 106H333.402C313.487 106 295.114 116.635 285.175 133.843L284.708 134.667L254.697 188.716L224.687 134.667C214.863 116.975 196.224 106 175.992 106H172.104Z" fill="white"/>
</svg>
