<svg width="350" height="350" viewBox="0 0 350 350" fill="#212529" xmlns="http://www.w3.org/2000/svg">
<path fill-rule="evenodd" clip-rule="evenodd" d="M133 33C110.909 33 93 50.9086 93 73V145.482C91.2111 147.59 89.502 149.768 87.8774 152.011C58.02 152.609 34 176.999 34 207C34 237.376 58.6243 262 89 262H93.3866L93.9698 257.556L94.0041 257.29C94.034 257.058 94.0776 256.716 94.1329 256.275C94.2436 255.394 94.4012 254.116 94.5902 252.522C94.968 249.336 95.4717 244.885 95.9755 239.817C96.9784 229.728 98 217.024 98 207C98 196.976 96.9784 184.272 95.9755 174.183C95.7564 171.979 95.5373 169.892 95.3286 167.974C111.43 140.754 141.083 122.5 175 122.5C208.917 122.5 238.57 140.754 254.671 167.974C254.463 169.892 254.244 171.979 254.025 174.183C253.022 184.272 252 196.976 252 207C252 217.024 253.022 229.728 254.025 239.817C254.528 244.885 255.032 249.336 255.41 252.522C255.599 254.116 255.756 255.394 255.867 256.275C255.897 256.517 255.924 256.729 255.947 256.909L255.996 257.29L256.03 257.556L256.613 262H261C291.376 262 316 237.376 316 207C316 176.999 291.98 152.609 262.123 152.011C260.498 149.768 258.789 147.59 257 145.482V88H277V68H307V48L277 48V68L256.691 68C254.23 48.2684 237.398 33 217 33C194.909 33 177 50.9086 177 73V107.518C176.335 107.506 175.668 107.5 175 107.5C174.332 107.5 173.665 107.506 173 107.518V73C173 50.9086 155.091 33 133 33ZM227 68L246.585 68C244.205 53.8114 231.865 43 217 43C200.431 43 187 56.4315 187 73V108.162C193.884 108.927 200.571 110.341 207 112.343V98H227V120.891C234.215 124.886 240.922 129.687 247 135.172V88H227V68ZM306 207C306 225.001 295.431 240.533 280.16 247.729C280.413 245.441 280.687 242.868 280.961 240.114C281.965 230.007 283 217.18 283 207C283 196.82 281.965 183.993 280.961 173.886C280.687 171.132 280.413 168.559 280.16 166.271C295.431 173.467 306 188.999 306 207ZM69.8405 166.271C69.5868 168.559 69.313 171.132 69.0392 173.886C68.0345 183.993 67 196.82 67 207C67 217.18 68.0345 230.007 69.0392 240.114C69.313 242.868 69.5868 245.441 69.8405 247.729C54.5693 240.533 44 225.001 44 207C44 188.999 54.5693 173.467 69.8405 166.271ZM163 108.162V73C163 56.4315 149.569 43 133 43C116.431 43 103 56.4315 103 73V135.172C109.078 129.687 115.785 124.886 123 120.891V78L143 78V112.343C149.429 110.341 156.116 108.927 163 108.162Z"/>
<path d="M215.802 207.4C215.002 206.933 214.102 206.7 213.102 206.7C212.135 206.7 211.235 206.933 210.402 207.4C209.602 207.867 208.968 208.5 208.502 209.3C208.035 210.1 207.802 211 207.802 212C207.802 212.967 208.035 213.867 208.502 214.7C208.968 215.5 209.602 216.133 210.402 216.6C211.235 217.067 212.135 217.3 213.102 217.3C214.102 217.3 215.002 217.067 215.802 216.6C216.602 216.133 217.235 215.5 217.702 214.7C218.168 213.867 218.402 212.967 218.402 212C218.402 211 218.168 210.1 217.702 209.3C217.235 208.5 216.602 207.867 215.802 207.4Z"/>
<path d="M168.351 231L158.658 205.072H169.376L178.604 231H168.351Z"/>
<path d="M179.703 229.56L174.869 215.839L178.36 205.072H188.443L179.703 229.56Z"/>
<path d="M136.7 207.4C135.9 206.933 135 206.7 134 206.7C133.033 206.7 132.133 206.933 131.3 207.4C130.5 207.867 129.867 208.5 129.4 209.3C128.933 210.1 128.7 211 128.7 212C128.7 212.967 128.933 213.867 129.4 214.7C129.867 215.5 130.5 216.133 131.3 216.6C132.133 217.067 133.033 217.3 134 217.3C135 217.3 135.9 217.067 136.7 216.6C137.5 216.133 138.133 215.5 138.6 214.7C139.067 213.867 139.3 212.967 139.3 212C139.3 211 139.067 210.1 138.6 209.3C138.133 208.5 137.5 207.867 136.7 207.4Z"/>
<path d="M288.156 304.188L287.312 276.531H302L301.125 304.188H288.156Z"/>
<path d="M287.75 318V308.344H301.562V318H287.75Z"/>
<path d="M255.631 309.562V318H266.35L274.725 309.719V284.812L266.35 276.531H255.631V284.938H260.913V309.562H255.631Z"/>
<path d="M234.413 309.719L242.819 318H253.444V309.562H248.256V284.938H253.444V276.531H242.819L234.413 284.812V309.719Z"/>
<path d="M198.231 307.344V299.031H208.262V284.812H198.231V276.531H213.731L222.012 284.812V299.031L213.731 307.344H198.231Z"/>
<path d="M182.481 318V276.531H196.044V318H182.481Z"/>
<path d="M147.269 309.156V318H169.394V309.156H165.238V285.344H169.394V276.531H147.269V285.344H151.425V309.156H147.269Z"/>
<path d="M116.369 318V309.562H121.65V284.938H116.369V276.531H127.087L135.462 284.812V309.719L127.087 318H116.369Z"/>
<path d="M103.556 318L95.1499 309.719V284.812L103.556 276.531H114.181V284.938H108.994V309.562H114.181V318H103.556Z"/>
<path d="M42.1875 276.531L57.1875 318H70.625L56.2812 276.531H42.1875Z"/>
<path d="M66.0938 298.5L72.3125 316.75L86.6562 276.531H72.7812L66.0938 298.5Z"/>
</svg>