<svg width="512" height="512" viewBox="0 0 512 512" fill="none" xmlns="http://www.w3.org/2000/svg">
<path d="M442.947 314.947L250.947 298.947L58.9474 314.947L27.2674 457.203C25.5074 469.459 42.8674 466.947 50.9474 466.947H450.947C459.027 466.947 476.387 469.459 474.627 457.203L442.947 314.947Z" fill="black"/>
<path d="M426.947 26.9474H74.9474C66.1474 26.9474 58.9474 34.1474 58.9474 42.9474V314.787H442.947V42.9474C442.947 34.1474 435.747 26.9474 426.947 26.9474Z" fill="black"/>
<path d="M74.9474 294.787V46.9474C74.9474 44.7074 76.7074 42.9474 78.9474 42.9474H422.947C425.187 42.9474 426.947 44.7074 426.947 46.9474V294.787C426.947 297.027 425.187 298.787 422.947 298.787H78.9474C76.7074 298.787 74.9474 297.027 74.9474 294.787Z" fill="#0078D7"/>
<path fill-rule="evenodd" clip-rule="evenodd" d="M431.267 335.427L442.787 387.427C442.978 388.312 442.969 389.228 442.76 390.109C442.551 390.99 442.149 391.813 441.581 392.518C441.014 393.223 440.296 393.793 439.481 394.186C438.665 394.578 437.773 394.784 436.867 394.787H65.0274C61.1874 394.787 58.3074 391.107 59.1074 387.427L70.6274 335.427C71.2674 332.707 73.6674 330.787 76.5474 330.787H425.347C428.227 330.787 430.627 332.707 431.267 335.427ZM125.923 386.947H102.995L104.995 374.947H127.427L125.939 386.947H125.923ZM156.931 386.947H133.987L135.491 374.947H157.955L156.947 386.947H156.931ZM186.339 386.947H164.963L165.955 374.947H186.851L186.339 386.947ZM215.939 386.947H194.339L194.851 374.947H216.451L215.939 386.947ZM246.947 386.947H223.955L224.451 374.947H246.947V386.947ZM277.939 386.947H254.947V374.947H277.443L277.939 386.947ZM307.539 386.947H285.939L285.459 374.947H307.043L307.539 386.947ZM336.931 386.947H315.555L315.043 374.947H335.939L336.931 386.947ZM367.923 386.947H344.963L343.955 374.947H366.419L367.923 386.947ZM398.899 386.947H375.971L374.483 374.947H396.883L398.899 386.947ZM426.947 386.947H406.995L404.995 374.947H424.947L426.947 386.947ZM421.619 354.947L423.619 366.947H403.667L401.667 354.947H421.619ZM418.947 338.947L420.275 346.947H400.339L398.995 338.947H418.947ZM369.987 338.947H390.899L392.227 346.947H370.979L369.971 338.947H369.987ZM340.963 338.947H361.923L362.915 346.947H341.635L340.963 338.947ZM313.555 338.947H332.931L333.603 346.947H313.875L313.555 338.947ZM283.955 338.947H305.555L305.875 346.947H284.275L283.955 338.947ZM254.947 338.947H275.939L276.275 346.947H254.947V338.947ZM225.955 338.947H246.947V346.947H225.619L225.955 338.947ZM196.355 338.947H217.955L217.603 346.947H196.003L196.355 338.947ZM168.963 338.947H188.339L188.019 346.947H168.291L168.963 338.947ZM139.971 338.947H160.931L160.259 346.947H138.979L139.971 338.947ZM111.011 338.947H131.907L130.899 346.947H109.667L110.995 338.947H111.011ZM82.9474 338.947H102.899L101.555 346.947H81.6194L82.9474 338.947ZM78.2754 366.947L80.2754 354.947H100.227L98.2274 366.947H78.2754ZM74.9474 386.947L76.9474 374.947H96.8994L94.8994 386.947H74.9474ZM395.555 366.947L393.555 354.947H371.971L373.475 366.947H395.555ZM365.411 366.947L363.923 354.947H342.291L343.299 366.947H365.411ZM335.267 366.947L334.259 354.947H314.211L314.723 366.947H335.267ZM306.707 366.947L306.211 354.947H284.611L285.123 366.947H306.707ZM277.107 366.947L276.611 354.947H254.947V366.947H277.107ZM108.339 354.947L106.339 366.947H128.419L129.923 354.947H108.339ZM137.971 354.947L136.483 366.947H158.595L159.603 354.947H137.971ZM167.635 354.947L166.627 366.947H187.171L187.683 354.947H167.635ZM195.683 354.947L195.187 366.947H216.787L217.267 354.947H195.683ZM225.283 354.947L224.787 366.947H246.947V354.947H225.283Z" fill="#0E698A"/>
<path d="M460.387 458.947C463.036 458.944 465.631 458.21 467.89 456.827C470.148 455.444 471.981 453.465 473.187 451.107L474.627 457.187L474.675 457.555C475.085 459.666 475.024 461.841 474.496 463.925C473.969 466.009 472.987 467.951 471.623 469.612C470.258 471.274 468.543 472.613 466.601 473.535C464.659 474.458 462.537 474.94 460.387 474.947H41.5074C33.5074 474.947 26.9474 468.387 26.9474 460.387C26.9474 459.267 27.1074 458.307 27.4274 457.347L28.7074 451.267C31.1074 455.747 35.9074 458.947 41.5074 458.947H460.387ZM168.067 442.787H333.827C336.387 442.787 338.307 440.387 337.667 437.827L331.587 413.827C331.363 412.973 330.867 412.215 330.174 411.667C329.482 411.119 328.63 410.81 327.747 410.787H174.147C172.387 410.787 170.787 412.067 170.307 413.827L164.227 437.827C163.587 440.387 165.507 442.787 168.067 442.787Z" fill="#0E698A"/>
<path d="M92.5191 62.5298L92.5191 246.849C92.5191 247.74 93.5963 248.186 94.2262 247.556L278.545 63.237C279.175 62.607 278.729 61.5299 277.838 61.5299L93.5191 61.5298C92.9668 61.5298 92.5191 61.9776 92.5191 62.5298Z" fill="#3A96DD"/>
</svg>
